<?xml version="1.0" encoding="UTF-8" standalone="no"?>
<!-- Created with Inkscape (http://www.inkscape.org/) -->

<svg
   xmlns:dc="http://purl.org/dc/elements/1.1/"
   xmlns:cc="http://creativecommons.org/ns#"
   xmlns:rdf="http://www.w3.org/1999/02/22-rdf-syntax-ns#"
   xmlns:svg="http://www.w3.org/2000/svg"
   xmlns="http://www.w3.org/2000/svg"
   xmlns:sodipodi="http://sodipodi.sourceforge.net/DTD/sodipodi-0.dtd"
   xmlns:inkscape="http://www.inkscape.org/namespaces/inkscape"
   width="210mm"
   height="297mm"
   viewBox="0 0 744.09448819 1052.3622047"
   id="svg2"
   version="1.1"
   inkscape:version="0.91 r13725"
   sodipodi:docname="logo.svg"
   inkscape:export-filename="D:\Programmation Personnel\Github repo\Lineage 2 Revolution tool\Lineage2RTool\L2Rtool\assets\logo.png"
   inkscape:export-xdpi="90"
   inkscape:export-ydpi="90">
  <defs
     id="defs4" />
  <sodipodi:namedview
     id="base"
     pagecolor="#ffffff"
     bordercolor="#666666"
     borderopacity="1.0"
     inkscape:pageopacity="0.0"
     inkscape:pageshadow="2"
     inkscape:zoom="0.98994949"
     inkscape:cx="28.29629"
     inkscape:cy="748.69981"
     inkscape:document-units="px"
     inkscape:current-layer="layer1"
     showgrid="false"
     inkscape:window-width="1536"
     inkscape:window-height="801"
     inkscape:window-x="-8"
     inkscape:window-y="-8"
     inkscape:window-maximized="1" />
  <metadata
     id="metadata7">
    <rdf:RDF>
      <cc:Work
         rdf:about="">
        <dc:format>image/svg+xml</dc:format>
        <dc:type
           rdf:resource="http://purl.org/dc/dcmitype/StillImage" />
        <dc:title />
      </cc:Work>
    </rdf:RDF>
  </metadata>
  <g
     inkscape:label="Calque 1"
     inkscape:groupmode="layer"
     id="layer1">
    <g
       id="g3420"
       inkscape:export-xdpi="90"
       inkscape:export-ydpi="90"
       transform="matrix(1.0002614,0,0,1.0437511,0.01558324,-18.552526)">
      <ellipse
         ry="185.86807"
         rx="193.9493"
         cy="238.17926"
         cx="134.3503"
         id="path3399"
         style="opacity:1;fill:#000000;fill-opacity:1;stroke:none;stroke-width:50;stroke-miterlimit:4;stroke-dasharray:none;stroke-dashoffset:0;stroke-opacity:1" />
      <g
         style="fill:#00ff00"
         transform="matrix(0.90410334,0,0,0.86842353,8.2677863,68.605754)"
         id="g3407">
        <path
           style="opacity:1;fill:#00ff00;fill-opacity:1;stroke:none;stroke-width:50;stroke-miterlimit:4;stroke-dasharray:none;stroke-dashoffset:0;stroke-opacity:1"
           d="m 222.83675,299.39679 c -0.0235,-5.52962 -2.87163,-16.2215 -5.52901,-20.75598 -2.89339,-4.9372 -9.35267,-10.97499 -14.22863,-13.30017 -3.11381,-1.48487 -4.07281,-1.51913 -8.28928,-0.29611 -2.62246,0.76066 -7.33282,1.64681 -10.46746,1.96922 -5.32193,0.54738 -6.16692,1.0256 -12.75967,7.2213 -5.83133,5.48013 -7.18214,7.35618 -7.76018,10.77762 -0.43997,2.60415 -1.98562,5.57953 -4.16213,8.01211 l -3.46224,3.86959 -7.12373,-7.57614 c -3.91805,-4.16688 -7.87185,-8.65763 -8.78622,-9.97944 -1.574,-2.27537 -1.54737,-2.49652 0.50024,-4.15457 1.1895,-0.96321 4.0204,-2.04833 6.29087,-2.4114 3.32994,-0.53247 5.63869,-2.10328 11.94037,-8.12387 l 7.81222,-7.46375 -0.30296,-8.42969 c -0.16663,-4.63632 -0.51947,-9.44419 -0.78409,-10.68415 -0.72711,-3.40703 -5.88467,-5.64526 -11.17895,-4.85133 -4.08005,0.61184 -4.8711,0.3237 -10.87665,-3.96177 -7.40326,-5.28285 -8.23898,-6.68352 -6.24237,-10.46216 2.2997,-4.35225 15.88067,-17.13112 20.04049,-18.85688 4.39414,-1.82298 5.18242,-1.54231 13.70117,4.87833 4.83044,3.64074 5.34151,4.38448 4.91917,7.15866 -0.25922,1.70269 -0.0628,3.87704 0.43648,4.83188 1.27521,2.43875 9.12825,6.85022 12.19436,6.85022 3.58926,0 19.04887,11.13152 27.35471,19.69646 17.27172,17.8105 21.41759,31.76872 14.29467,48.12699 -1.53818,3.53252 -3.85859,7.54885 -5.15647,8.92519 l -2.35978,2.50243 -0.0149,-3.51259 z"
           id="path3377"
           inkscape:connector-curvature="0" />
        <path
           style="opacity:1;fill:#00ff00;fill-opacity:1;stroke:none;stroke-width:50;stroke-miterlimit:4;stroke-dasharray:none;stroke-dashoffset:0;stroke-opacity:1"
           d="m 170.02326,382.23998 c -4.41218,-1.32526 -12.42788,-6.84042 -15.11145,-10.39735 -4.9499,-6.56083 -5.74753,-11.95792 -3.22336,-21.8107 l 1.56775,-6.11954 -26.21676,-31.08515 C 95.01047,274.85057 86.07099,264.83606 83.27756,263.8027 c -1.1844,-0.43813 -6.12623,-1.20763 -10.98185,-1.70998 -9.71288,-1.00489 -16.72217,-3.88999 -21.36295,-8.79325 -5.55829,-5.87265 -8.93198,-17.80473 -5.41565,-19.15407 0.83963,-0.3222 5.43108,2.27783 10.78135,6.10522 10.13012,7.24672 9.86633,7.20284 18.18175,3.02451 5.83345,-2.9312 9.98057,-7.7353 9.98057,-11.56169 0,-3.08751 -0.11138,-3.19098 -13.59294,-12.62747 l -7.02694,-4.91855 3.49141,-0.92067 c 4.50887,-1.18897 15.36809,-0.26427 21.15476,1.80141 9.60181,3.42757 13.96101,10.62452 14.61813,24.13426 0.23372,4.8051 1.07344,9.81825 1.9129,11.42013 3.44834,6.5802 61.21804,71.93479 68.99043,78.04855 1.412,1.11069 6.50174,3.21927 11.31055,4.68574 11.39545,3.47509 15.16783,5.47459 19.61422,10.3962 4.06133,4.49542 5.35582,9.09423 4.44019,15.77439 -0.66928,4.88299 -4.65698,13.83768 -5.96764,13.40079 -0.46542,-0.15514 -2.78256,-4.48837 -5.14921,-9.62941 -5.34409,-11.60893 -6.37387,-12.68176 -12.08976,-12.59535 -6.60212,0.0998 -18.87359,7.33069 -18.87359,11.12112 0,0.88326 1.89738,5.31134 4.21639,9.84019 2.55142,4.98271 3.96005,8.90229 3.56724,9.92596 -0.71548,1.86451 -0.96448,1.89749 -5.05366,0.66925 z"
           id="path3379"
           inkscape:connector-curvature="0" />
        <path
           style="opacity:1;fill:#00ff00;fill-opacity:1;stroke:none;stroke-width:50;stroke-miterlimit:4;stroke-dasharray:none;stroke-dashoffset:0;stroke-opacity:1"
           d="m 66.78311,381.55519 c -4.52677,-2.42936 -14.83693,-10.31739 -17.42012,-13.32766 -1.2473,-1.45353 -2.27008,-3.3516 -2.27284,-4.21792 -0.003,-0.86633 6.92716,-8.16951 15.39981,-16.22929 16.74655,-15.9305 45.80371,-42.29965 46.61157,-42.29965 0.96386,0 17.78566,20.08384 17.78566,21.23461 0,0.6381 -6.48002,7.82649 -14.40005,15.97421 -7.92002,8.14772 -19.87809,20.60979 -26.57349,27.69348 -7.65257,8.09637 -12.90258,12.86442 -14.13677,12.839 -1.07982,-0.0222 -3.32702,-0.7723 -4.99377,-1.66678 z"
           id="path3381"
           inkscape:connector-curvature="0" />
      </g>
      <path
         inkscape:connector-curvature="0"
         id="path3383"
         d="m 12.739947,167.08973 0,-57.57865 8.565621,0 8.565622,0 0,44.23726 0,44.23726 27.673561,0 27.673549,0 0,13.34139 0,13.3414 -36.23917,0 -36.239183,0 0,-57.57866 z"
         style="opacity:1;fill:#ff0000;fill-opacity:1;stroke:none;stroke-width:50;stroke-miterlimit:4;stroke-dasharray:none;stroke-dashoffset:0;stroke-opacity:1" />
      <path
         inkscape:connector-curvature="0"
         id="path3385"
         d="m 112.61692,223.28031 c -18.423215,-5.91838 -25.651992,-38.61636 -12.737491,-57.61547 6.672301,-9.81592 10.117241,-11.20306 27.837541,-11.20907 13.72312,-0.004 15.78374,-0.32466 18.11959,-2.81396 3.15281,-3.35994 3.41106,-9.43002 0.58418,-13.7311 -2.00027,-3.04338 -2.69023,-3.12119 -27.67356,-3.12119 l -25.622144,0 0,-12.63923 0,-12.63921 26.685214,0.006 c 23.94703,0.004 27.10901,0.28064 30.81537,2.68915 16.5954,10.78414 20.12959,41.06812 6.80338,58.29718 -6.0122,7.77299 -10.4008,9.22629 -27.86112,9.22629 -16.35751,0 -17.34942,0.42838 -18.79213,8.11581 -0.65871,3.50989 -0.13407,5.06179 2.75042,8.13578 l 3.5644,3.79855 24.25641,-1.00288 24.25641,-1.00287 0,13.44752 0,13.44752 -24.70853,-0.12067 c -13.58969,-0.0665 -26.31478,-0.6367 -28.27794,-1.26736 z"
         style="opacity:1;fill:#ffff00;fill-opacity:1;stroke:none;stroke-width:50;stroke-miterlimit:4;stroke-dasharray:none;stroke-dashoffset:0;stroke-opacity:1" />
      <path
         inkscape:connector-curvature="0"
         id="path3387"
         d="m 177.51011,167.08973 0,-57.57865 32.61527,0.006 c 29.78527,0.004 32.97362,0.23812 36.74542,2.68915 12.72246,8.2674 17.96399,27.20791 12.8766,46.53029 -1.97888,7.51604 -1.95997,8.25684 0.3251,12.73134 2.03019,3.97541 2.4985,8.70537 2.8689,28.97611 l 0.44266,24.22516 -8.67448,0 -8.67448,0 0,-19.34852 c 0,-27.27494 1.82599,-25.59091 -27.74828,-25.59091 l -23.64545,0 0,22.46972 0,22.46971 -8.56564,0 -8.56562,0 0,-57.57866 z m 64.79731,-14.96341 c 3.04673,-2.93839 3.17634,-11.29785 0.22897,-14.76861 -1.95315,-2.29999 -4.56802,-2.56819 -25.03798,-2.56819 l -22.85704,0 0,8.89426 c 0,4.89185 0.39533,9.31557 0.87852,9.8305 0.48319,0.51494 10.66583,0.93623 22.62808,0.93623 18.38891,0 22.12193,-0.35912 24.15945,-2.32419 z"
         style="opacity:1;fill:#ff0000;fill-opacity:1;stroke:none;stroke-width:50;stroke-miterlimit:4;stroke-dasharray:none;stroke-dashoffset:0;stroke-opacity:1" />
    </g>
  </g>
</svg>
